<svg id="dotted-shape" xmlns="http://www.w3.org/2000/svg" width="70.101" height="82" viewBox="0 0 70.101 82">
  <circle id="Ellipse_68" data-name="Ellipse 68" cx="1.293" cy="1.293" r="1.293" transform="translate(0 82) rotate(-90)" fill="#1a1a1a"/>
  <circle id="Ellipse_69" data-name="Ellipse 69" cx="1.293" cy="1.293" r="1.293" transform="translate(11.381 82) rotate(-90)" fill="#1a1a1a"/>
  <circle id="Ellipse_70" data-name="Ellipse 70" cx="1.293" cy="1.293" r="1.293" transform="translate(22.764 82) rotate(-90)" fill="#1a1a1a"/>
  <circle id="Ellipse_71" data-name="Ellipse 71" cx="1.293" cy="1.293" r="1.293" transform="translate(34.144 82) rotate(-90)" fill="#1a1a1a"/>
  <circle id="Ellipse_72" data-name="Ellipse 72" cx="1.293" cy="1.293" r="1.293" transform="translate(45.526 82) rotate(-90)" fill="#1a1a1a"/>
  <circle id="Ellipse_73" data-name="Ellipse 73" cx="1.293" cy="1.293" r="1.293" transform="translate(67.514 82) rotate(-90)" fill="#1a1a1a"/>
  <circle id="Ellipse_74" data-name="Ellipse 74" cx="1.293" cy="1.293" r="1.293" transform="translate(56.651 82) rotate(-90)" fill="#1a1a1a"/>
  <circle id="Ellipse_75" data-name="Ellipse 75" cx="1.293" cy="1.293" r="1.293" transform="translate(0 70.618) rotate(-90)" fill="#1a1a1a"/>
  <circle id="Ellipse_76" data-name="Ellipse 76" cx="1.293" cy="1.293" r="1.293" transform="translate(11.381 70.618) rotate(-90)" fill="#1a1a1a"/>
  <circle id="Ellipse_77" data-name="Ellipse 77" cx="1.293" cy="1.293" r="1.293" transform="translate(22.764 70.618) rotate(-90)" fill="#1a1a1a"/>
  <circle id="Ellipse_78" data-name="Ellipse 78" cx="1.293" cy="1.293" r="1.293" transform="translate(34.144 70.618) rotate(-90)" fill="#1a1a1a"/>
  <circle id="Ellipse_79" data-name="Ellipse 79" cx="1.293" cy="1.293" r="1.293" transform="translate(45.526 70.619) rotate(-90)" fill="#1a1a1a"/>
  <circle id="Ellipse_80" data-name="Ellipse 80" cx="1.293" cy="1.293" r="1.293" transform="translate(67.514 70.619) rotate(-90)" fill="#1a1a1a"/>
  <circle id="Ellipse_81" data-name="Ellipse 81" cx="1.293" cy="1.293" r="1.293" transform="translate(56.65 70.619) rotate(-90)" fill="#1a1a1a"/>
  <circle id="Ellipse_82" data-name="Ellipse 82" cx="1.293" cy="1.293" r="1.293" transform="translate(0 59.237) rotate(-90)" fill="#1a1a1a"/>
  <circle id="Ellipse_83" data-name="Ellipse 83" cx="1.293" cy="1.293" r="1.293" transform="translate(0 25.35) rotate(-90)" fill="#1a1a1a"/>
  <circle id="Ellipse_84" data-name="Ellipse 84" cx="1.293" cy="1.293" r="1.293" transform="translate(11.381 59.237) rotate(-90)" fill="#1a1a1a"/>
  <circle id="Ellipse_85" data-name="Ellipse 85" cx="1.293" cy="1.293" r="1.293" transform="translate(11.381 25.35) rotate(-90)" fill="#1a1a1a"/>
  <circle id="Ellipse_86" data-name="Ellipse 86" cx="1.293" cy="1.293" r="1.293" transform="translate(22.764 59.237) rotate(-90)" fill="#1a1a1a"/>
  <circle id="Ellipse_87" data-name="Ellipse 87" cx="1.293" cy="1.293" r="1.293" transform="translate(22.764 25.35) rotate(-90)" fill="#1a1a1a"/>
  <circle id="Ellipse_88" data-name="Ellipse 88" cx="1.293" cy="1.293" r="1.293" transform="translate(34.144 59.237) rotate(-90)" fill="#1a1a1a"/>
  <circle id="Ellipse_89" data-name="Ellipse 89" cx="1.293" cy="1.293" r="1.293" transform="translate(34.144 25.35) rotate(-90)" fill="#1a1a1a"/>
  <circle id="Ellipse_90" data-name="Ellipse 90" cx="1.293" cy="1.293" r="1.293" transform="translate(45.526 59.236) rotate(-90)" fill="#1a1a1a"/>
  <circle id="Ellipse_91" data-name="Ellipse 91" cx="1.293" cy="1.293" r="1.293" transform="translate(45.526 25.35) rotate(-90)" fill="#1a1a1a"/>
  <circle id="Ellipse_92" data-name="Ellipse 92" cx="1.293" cy="1.293" r="1.293" transform="translate(67.514 59.236) rotate(-90)" fill="#1a1a1a"/>
  <circle id="Ellipse_93" data-name="Ellipse 93" cx="1.293" cy="1.293" r="1.293" transform="translate(67.514 25.35) rotate(-90)" fill="#1a1a1a"/>
  <circle id="Ellipse_94" data-name="Ellipse 94" cx="1.293" cy="1.293" r="1.293" transform="translate(56.65 59.236) rotate(-90)" fill="#1a1a1a"/>
  <circle id="Ellipse_95" data-name="Ellipse 95" cx="1.293" cy="1.293" r="1.293" transform="translate(56.651 25.35) rotate(-90)" fill="#1a1a1a"/>
  <circle id="Ellipse_96" data-name="Ellipse 96" cx="1.293" cy="1.293" r="1.293" transform="translate(0 47.855) rotate(-90)" fill="#1a1a1a"/>
  <circle id="Ellipse_97" data-name="Ellipse 97" cx="1.293" cy="1.293" r="1.293" transform="translate(0 13.968) rotate(-90)" fill="#1a1a1a"/>
  <circle id="Ellipse_98" data-name="Ellipse 98" cx="1.293" cy="1.293" r="1.293" transform="translate(11.381 47.855) rotate(-90)" fill="#1a1a1a"/>
  <circle id="Ellipse_99" data-name="Ellipse 99" cx="1.293" cy="1.293" r="1.293" transform="translate(11.381 13.968) rotate(-90)" fill="#1a1a1a"/>
  <circle id="Ellipse_100" data-name="Ellipse 100" cx="1.293" cy="1.293" r="1.293" transform="translate(22.764 47.855) rotate(-90)" fill="#1a1a1a"/>
  <circle id="Ellipse_101" data-name="Ellipse 101" cx="1.293" cy="1.293" r="1.293" transform="translate(22.764 13.968) rotate(-90)" fill="#1a1a1a"/>
  <circle id="Ellipse_102" data-name="Ellipse 102" cx="1.293" cy="1.293" r="1.293" transform="translate(34.144 47.855) rotate(-90)" fill="#1a1a1a"/>
  <circle id="Ellipse_103" data-name="Ellipse 103" cx="1.293" cy="1.293" r="1.293" transform="translate(34.144 13.968) rotate(-90)" fill="#1a1a1a"/>
  <circle id="Ellipse_104" data-name="Ellipse 104" cx="1.293" cy="1.293" r="1.293" transform="translate(45.526 47.855) rotate(-90)" fill="#1a1a1a"/>
  <circle id="Ellipse_105" data-name="Ellipse 105" cx="1.293" cy="1.293" r="1.293" transform="translate(45.526 13.968) rotate(-90)" fill="#1a1a1a"/>
  <circle id="Ellipse_106" data-name="Ellipse 106" cx="1.293" cy="1.293" r="1.293" transform="translate(67.514 47.855) rotate(-90)" fill="#1a1a1a"/>
  <circle id="Ellipse_107" data-name="Ellipse 107" cx="1.293" cy="1.293" r="1.293" transform="translate(67.514 13.968) rotate(-90)" fill="#1a1a1a"/>
  <circle id="Ellipse_108" data-name="Ellipse 108" cx="1.293" cy="1.293" r="1.293" transform="translate(56.65 47.855) rotate(-90)" fill="#1a1a1a"/>
  <circle id="Ellipse_109" data-name="Ellipse 109" cx="1.293" cy="1.293" r="1.293" transform="translate(56.651 13.968) rotate(-90)" fill="#1a1a1a"/>
  <circle id="Ellipse_110" data-name="Ellipse 110" cx="1.293" cy="1.293" r="1.293" transform="translate(0 36.473) rotate(-90)" fill="#1a1a1a"/>
  <circle id="Ellipse_111" data-name="Ellipse 111" cx="1.293" cy="1.293" r="1.293" transform="translate(0 2.587) rotate(-90)" fill="#1a1a1a"/>
  <circle id="Ellipse_112" data-name="Ellipse 112" cx="1.293" cy="1.293" r="1.293" transform="translate(11.381 36.473) rotate(-90)" fill="#1a1a1a"/>
  <circle id="Ellipse_113" data-name="Ellipse 113" cx="1.293" cy="1.293" r="1.293" transform="translate(11.381 2.587) rotate(-90)" fill="#1a1a1a"/>
  <circle id="Ellipse_114" data-name="Ellipse 114" cx="1.293" cy="1.293" r="1.293" transform="translate(22.764 36.473) rotate(-90)" fill="#1a1a1a"/>
  <circle id="Ellipse_115" data-name="Ellipse 115" cx="1.293" cy="1.293" r="1.293" transform="translate(22.764 2.587) rotate(-90)" fill="#1a1a1a"/>
  <circle id="Ellipse_116" data-name="Ellipse 116" cx="1.293" cy="1.293" r="1.293" transform="translate(34.144 36.473) rotate(-90)" fill="#1a1a1a"/>
  <circle id="Ellipse_117" data-name="Ellipse 117" cx="1.293" cy="1.293" r="1.293" transform="translate(34.144 2.587) rotate(-90)" fill="#1a1a1a"/>
  <circle id="Ellipse_118" data-name="Ellipse 118" cx="1.293" cy="1.293" r="1.293" transform="translate(45.526 36.473) rotate(-90)" fill="#1a1a1a"/>
  <circle id="Ellipse_119" data-name="Ellipse 119" cx="1.293" cy="1.293" r="1.293" transform="translate(45.526 2.587) rotate(-90)" fill="#1a1a1a"/>
  <circle id="Ellipse_120" data-name="Ellipse 120" cx="1.293" cy="1.293" r="1.293" transform="translate(67.514 36.473) rotate(-90)" fill="#1a1a1a"/>
  <circle id="Ellipse_121" data-name="Ellipse 121" cx="1.293" cy="1.293" r="1.293" transform="translate(67.514 2.587) rotate(-90)" fill="#1a1a1a"/>
  <circle id="Ellipse_122" data-name="Ellipse 122" cx="1.293" cy="1.293" r="1.293" transform="translate(56.651 36.473) rotate(-90)" fill="#1a1a1a"/>
  <circle id="Ellipse_123" data-name="Ellipse 123" cx="1.293" cy="1.293" r="1.293" transform="translate(56.651 2.587) rotate(-90)" fill="#1a1a1a"/>
</svg>
